<svg xmlns="http://www.w3.org/2000/svg" width="24" height="24" viewBox="0 0 24 24">
    <path fill="#000" fill-rule="evenodd" d="M20.441 23.196h-.384v-.024a4.757 4.757 0 0 1-.48.024h-2.822v-8.93h2.987l.45-3.483h-3.437V8.562c0-.56.118-.981.353-1.261.235-.28.693-.42 1.373-.42l1.831-.016V3.758c-.63-.09-1.52-.135-2.671-.135-1.361 0-2.45.4-3.265 1.201-.815.8-1.223 1.931-1.223 3.392v2.567H10.15v3.482h3.002v8.93H2.574a1.73 1.73 0 0 1-1.729-1.732V1.874c0-.957.775-1.733 1.73-1.733H19.576c.163 0 .323.008.48.024V.141h2.114a1.73 1.73 0 0 1 1.728 1.733v19.589c0 .957-.776 1.733-1.729 1.733h-1.729z"/>
</svg>
