<svg xmlns="http://www.w3.org/2000/svg" width="24" height="24" viewBox="0 0 24 24">
    <path fill="#000" fill-rule="evenodd" d="M15.47 20.734c-.42-2.411-1.121-4.903-2.102-7.475h-.03l-.03.015c-.16.06-.375.143-.645.248-.27.105-.775.35-1.516.736-.74.385-1.426.795-2.056 1.23-.63.436-1.286 1.009-1.966 1.719-.68.71-1.196 1.45-1.546 2.221l-.225-.165c1.84 1.501 3.932 2.252 6.273 2.252 1.321 0 2.602-.26 3.843-.78zm-2.777-9.11c-.21-.49-.475-1.046-.795-1.667-3.112.931-6.48 1.396-10.102 1.396-.01.07-.015.175-.015.315 0 1.241.22 2.425.66 3.55a9.856 9.856 0 0 0 1.862 3.025c.5-.89 1.118-1.724 1.854-2.5.735-.775 1.448-1.398 2.138-1.868.69-.47 1.344-.876 1.96-1.216.614-.34 1.112-.58 1.492-.72l.556-.195.195-.053c.09-.025.155-.048.195-.068zM11.087 8.44c-1.2-2.13-2.421-4.022-3.662-5.673A9.714 9.714 0 0 0 3.913 5.56a9.728 9.728 0 0 0-1.921 4.082c3.021 0 6.053-.4 9.095-1.2zm10.266 4.788c-2.101-.6-4.147-.745-6.138-.435.87 2.392 1.51 4.738 1.92 7.04a9.836 9.836 0 0 0 2.777-2.845 9.707 9.707 0 0 0 1.441-3.76zM9.271 2.107c-.01 0-.02.005-.03.015.01-.01.02-.015.03-.015zm8.855 2.177c-1.85-1.641-4.017-2.462-6.499-2.462-.76 0-1.536.095-2.326.285 1.31 1.702 2.542 3.613 3.692 5.734.69-.26 1.341-.563 1.951-.908.61-.345 1.094-.653 1.449-.923s.683-.555.983-.856c.3-.3.488-.502.563-.608l.187-.262zm3.347 7.28c-.03-2.322-.775-4.373-2.236-6.154l-.015.015c-.09.12-.185.242-.285.367-.1.125-.318.348-.653.668-.335.32-.69.623-1.066.908-.375.285-.875.61-1.5.976a15.36 15.36 0 0 1-1.974.968c.25.53.47 1.006.66 1.426.02.06.053.147.098.263.045.115.082.197.112.247.36-.05.733-.085 1.118-.105a21.298 21.298 0 0 1 2.14-.007 24.713 24.713 0 0 1 2.528.24l.548.09c.15.025.275.047.375.067l.15.03zm1.681.104c0 2.092-.515 4.02-1.546 5.787a11.475 11.475 0 0 1-4.195 4.195c-1.766 1.03-3.694 1.546-5.786 1.546-2.09 0-4.02-.516-5.786-1.546a11.475 11.475 0 0 1-4.195-4.195C.616 15.689.1 13.76.1 11.668c0-2.09.516-4.02 1.546-5.786a11.475 11.475 0 0 1 4.195-4.195C7.607.657 9.536.141 11.627.141c2.092 0 4.02.516 5.786 1.546a11.475 11.475 0 0 1 4.195 4.195c1.031 1.766 1.546 3.695 1.546 5.786z"/>
</svg>
