<svg xmlns="http://www.w3.org/2000/svg" width="84" height="39" viewBox="0 0 84 39">
    <g fill="#FF8376" fill-rule="nonzero">
        <path d="M36.027 16.934v8.502c0 1.265-.895 2.172-2.152 2.172-.86 0-2.065-.907-2.065-2.172-1.842 1.556-3.908 2.172-6.352 2.172-6.042 0-10.844-4.55-10.844-10.674 0-6.123 4.802-10.981 10.844-10.981 6.06 0 10.569 4.858 10.569 10.981zm-4.2 0c0-3.643-2.737-6.722-6.352-6.722-3.597 0-6.644 3.079-6.644 6.722 0 3.644 3.047 6.415 6.644 6.415 3.598 0 6.352-2.771 6.352-6.415zM42.723 25.418v10.743c0 1.163-.947 2.12-2.1 2.12-1.205 0-2.152-.94-2.152-2.12V16.78c0-5.953 4.837-10.828 10.759-10.828 5.955 0 10.758 4.875 10.758 10.827 0 6.004-4.803 10.828-10.758 10.828a10.5 10.5 0 0 1-6.507-2.19zm0-8.69v.052c0 3.558 2.909 6.483 6.524 6.483a6.518 6.518 0 0 0 6.523-6.517c0-3.558-2.909-6.517-6.523-6.517a6.481 6.481 0 0 0-6.524 6.5zM84 16.797c0 1.164-.947 2.104-2.152 2.104H67.062c.895 2.583 3.305 4.43 6.18 4.43.981 0 2.737-.085 4.802-1.42.981-.65 2.324-.05 2.823.993.517 1.078-.051 2.19-1.033 2.84-2.823 1.898-5.009 1.847-6.61 1.847-5.955 0-10.758-4.858-10.758-10.81 0-5.988 4.803-10.811 10.759-10.811C78.44 6.004 84 9.784 84 16.797zm-16.92-2.155h12.393c-.895-3.01-3.65-4.396-6.214-4.396a6.579 6.579 0 0 0-6.18 4.396zM10.586 10.229a2.182 2.182 0 0 0 2.186-2.172 2.182 2.182 0 0 0-2.186-2.173h-2.29v-3.37c0-1.317-1.153-2.411-2.564-2.411-1.463 0-2.616 1.077-2.616 2.411v3.37H2.41c-1.291 0-2.341.992-2.341 2.207 0 1.214 1.05 2.206 2.34 2.206l.707-.017v11.17c0 4.653 2.702 6.21 6.523 6.21 1.377 0 2.445-.206 3.563-.565.723-.274 1.378-1.01 1.378-1.882 0-1.129-1.033-2.001-2.187-2.001-.172 0-.688.12-1.29.12-1.756 0-2.79-.77-2.79-2.652V10.297"/>
        <path d="M48.696 10.263H25.94a1.992 1.992 0 0 1-1.997-1.984v-.36c0-1.094.896-1.983 1.997-1.983h22.756c1.102 0 1.997.889 1.997 1.984v.359a1.992 1.992 0 0 1-1.997 1.984z"/>
    </g>
</svg>
