<svg xmlns="http://www.w3.org/2000/svg" width="29" height="24" viewBox="0 0 29 24">
    <path fill="#000" fill-rule="evenodd" d="M28.417 2.879A12.19 12.19 0 0 1 25.5 5.887a16.527 16.527 0 0 1-.666 5.43 16.891 16.891 0 0 1-2.08 4.476 17.594 17.594 0 0 1-3.323 3.791c-1.285 1.1-2.834 1.976-4.647 2.63-1.813.655-3.752.982-5.818.982-3.254 0-6.231-.87-8.933-2.612.42.048.889.072 1.405.072 2.702 0 5.109-.828 7.222-2.485a5.672 5.672 0 0 1-3.386-1.162 5.69 5.69 0 0 1-2.053-2.873c.396.06.762.09 1.099.09.516 0 1.026-.066 1.53-.198a5.723 5.723 0 0 1-3.34-2.008c-.883-1.063-1.324-2.297-1.324-3.702v-.072a5.771 5.771 0 0 0 2.63.739 5.81 5.81 0 0 1-1.892-2.072 5.669 5.669 0 0 1-.702-2.773 5.7 5.7 0 0 1 .792-2.936A16.491 16.491 0 0 0 7.317 5.5a16.21 16.21 0 0 0 6.691 1.792 6.462 6.462 0 0 1-.144-1.333c0-1.61.568-2.981 1.702-4.116C16.701.71 18.073.141 19.682.141c1.68 0 3.098.613 4.25 1.837 1.31-.252 2.54-.72 3.693-1.405-.445 1.381-1.297 2.45-2.558 3.206 1.117-.12 2.234-.42 3.35-.9z"/>
</svg>
